<svg xmlns="http://www.w3.org/2000/svg" viewBox="0 0 502.001 502.001" width="512" height="512"><path d="M191.622 310.378C111.647 230.404 101.976 105.871 161.042 10 72.148 48.759 10 137.399 10 240.57 10 379.431 122.569 492 261.431 492c103.17 0 191.811-62.148 230.569-151.042-95.871 59.066-220.403 49.395-300.378-30.58z" fill="#fbb03b"/><path d="M261.431 502c-69.831 0-135.481-27.193-184.859-76.571S0 310.4 0 240.57C0 136.532 61.644 42.43 157.045.834a10 10 0 0112.51 14.411c-58.118 94.333-46.136 212.789 29.137 288.062 43.412 43.412 101.198 65.772 160.425 65.775 43.469.002 87.707-12.038 127.637-36.639a10 10 0 0114.412 12.51C459.57 440.356 365.469 502 261.431 502zM137.166 33.53C65.113 76.787 20 155.044 20 240.57 20 373.695 128.305 482 261.431 482c85.525 0 163.783-45.113 207.04-117.167-41.854 19.137-88.248 27.223-133.563 22.93-28.056-2.658-55.063-9.883-80.271-21.477-26.103-12.004-49.683-28.436-70.085-48.838-20.402-20.402-36.833-43.982-48.838-70.084-11.593-25.209-18.819-52.216-21.477-80.272-4.293-45.311 3.793-91.707 22.929-133.562z"/><path d="M260.265 463c-66.337 0-128.605-29.392-170.836-80.638-3.512-4.262-2.904-10.564 1.358-14.077 4.262-3.512 10.563-2.905 14.077 1.358C143.281 416.262 199.923 443 260.265 443c5.522 0 10 4.477 10 10s-4.478 10-10 10zM77.01 356.913a9.995 9.995 0 01-8.678-5.016 221.536 221.536 0 01-8.38-16.063c-2.352-4.997-.207-10.955 4.791-13.306 4.996-2.353 10.955-.206 13.306 4.791a200.99 200.99 0 007.621 14.605c2.753 4.788 1.104 10.901-3.683 13.654a9.937 9.937 0 01-4.977 1.335z"/></svg>