<svg xmlns="http://www.w3.org/2000/svg" width="400" height="400"><g fill-rule="evenodd"><path d="M187.7.276c.385.1 1.015.1 1.4 0 .385-.101.07-.183-.7-.183s-1.085.082-.7.183m23.2 0c.385.1 1.015.1 1.4 0 .385-.101.07-.183-.7-.183s-1.085.082-.7.183m-86.088 13.708c-.324.205-.491.47-.371.59.119.12.564-.045.988-.365.844-.638.331-.824-.617-.225m-4.8 2c-.324.205-.491.47-.371.59.119.12.564-.045.988-.365.844-.638.331-.824-.617-.225m159.988.44c0 .233.18.312.4.176.22-.136.4-.095.4.091s.405.366.9.4c.876.059.873.046-.1-.501-1.215-.683-1.6-.723-1.6-.166m-161.943.332c-.378.24-.408.427-.1.618.244.15.443.072.443-.174s.18-.336.4-.2c.22.136.4.057.4-.176 0-.51-.408-.534-1.143-.068M115 18.072c-.88.46-1.66.993-1.734 1.185-.074.191-.299.246-.5.122s-.366-.025-.366.221-.135.365-.3.266c-.165-.1-.532.069-.816.376-.283.307-.421.558-.306.558.524 0 6.222-3.01 6.222-3.288 0-.471-.444-.358-2.2.56m167.8-.555c0 .275 4.097 2.483 4.609 2.483.105 0 .191-.191.191-.424 0-.233-.18-.312-.4-.176-.22.136-.4.092-.4-.097s-.815-.739-1.811-1.223c-2.005-.975-2.189-1.022-2.189-.563m-178.1 6.11c-.825.436-1.5.881-1.5.991 0 .109.72-.169 1.6-.618.88-.449 1.6-.903 1.6-1.008 0-.262-.003-.261-1.7.635m189.7-.248c0 .11.54.48 1.2.821.66.341 1.2.531 1.2.421 0-.11-.54-.48-1.2-.821-.66-.341-1.2-.531-1.2-.421M98.6 26.876c-2.853 1.611-10.213 6.445-10.054 6.603.106.106 1.284-.548 2.618-1.454 1.334-.906 3.912-2.542 5.731-3.635 2.786-1.677 4.174-2.908 1.705-1.514m204.505 1.514c1.819 1.093 4.397 2.729 5.731 3.635 1.334.906 2.512 1.56 2.618 1.454.304-.304-10.539-7.08-11.328-7.078-.179 0 1.161.895 2.979 1.989M86.3 34.702c-.825.554-1.5 1.183-1.5 1.4 0 .311 1.286-.489 3.167-1.971.851-.671-.511-.204-1.667.571m-9.982 7.425c-5.393 4.328-5.26 4.681.198.525 1.696-1.292 3.084-2.507 3.084-2.7 0-.481.161-.588-3.282 2.175m244.133-2.225c.245.653 7.149 6.015 7.149 5.552 0-.106-1.642-1.488-3.649-3.071-2.007-1.583-3.582-2.7-3.5-2.481M68.8 48.443c-1.43 1.336-1.88 1.877-1 1.202 2.736-2.099 4.417-3.623 4-3.628-.22-.002-1.57 1.089-3 2.426M328 46.154c0 .085.495.473 1.1.862l1.1.708-.762-.862c-.674-.763-1.438-1.139-1.438-.708m2.4 1.979c0 .073.765.733 1.7 1.465l1.7 1.332-1.378-1.465c-1.184-1.258-2.022-1.81-2.022-1.332M62.589 54.074L59.8 56.948l2.9-2.515c2.412-2.092 3.396-3.233 2.789-3.233-.061 0-1.366 1.293-2.9 2.874M334.4 51.56c0 .199 1.125 1.312 2.5 2.474l2.5 2.113-2.387-2.473c-2.517-2.608-2.613-2.685-2.613-2.114m11.228 11.24c1.369 1.54 2.682 2.8 2.92 2.8.237 0-.82-1.26-2.348-2.8-1.528-1.54-2.842-2.8-2.92-2.8-.077 0 .979 1.26 2.348 2.8m-292.04.247c-1.423 1.456-2.332 2.571-2.02 2.477.52-.155 5.147-5.124 4.772-5.124-.09 0-1.328 1.191-2.752 2.647m-5.354 5.897c-1.229 1.4-2.229 2.705-2.223 2.9.01.344 1.071-.808 3.632-3.944 1.99-2.438 1.011-1.712-1.409 1.044m302.627-.603c.957 1.177 2.05 2.527 2.43 3 .38.472.692.679.694.459.001-.22-1.093-1.57-2.43-3-2.154-2.303-2.233-2.355-.694-.459M42.422 76c-1.562 1.98-2.695 3.6-2.518 3.6.283 0 4.575-5.288 5.416-6.673.895-1.475-.363-.141-2.898 3.073m312.258-3.073c.841 1.385 5.133 6.673 5.416 6.673.177 0-.956-1.62-2.518-3.6-2.535-3.214-3.793-4.548-2.898-3.073M35.6 85c-.681.99-1.095 1.793-.919 1.784.475-.023 3.01-3.584 2.551-3.584-.217 0-.951.81-1.632 1.8m329.104 1.385c1.437 2.077 2.022 2.091.649.015-.583-.88-1.214-1.6-1.402-1.6-.189 0 .15.713.753 1.585M30.303 93.077c-3.213 5.086-3.903 6.289-3.902 6.797 0 .179.895-1.161 1.989-2.979 1.093-1.819 2.729-4.397 3.635-5.731.906-1.334 1.56-2.512 1.454-2.618-.106-.106-1.535 1.933-3.176 4.531M366.4 88.542c0 .166.725 1.37 1.611 2.674.886 1.305 2.506 3.86 3.599 5.679 1.094 1.818 1.989 3.104 1.989 2.859.001-.442-6.106-10.407-6.824-11.134-.206-.209-.375-.244-.375-.078m-215.9 8.149c.825.087 2.175.087 3 0 .825-.086.15-.157-1.5-.157s-2.325.071-1.5.157m13.7 2.587c.44.249.89.577 1 .728.418.574 2 1.219 2 .816 0-.223-.713-.769-1.584-1.214-1.662-.848-2.795-1.112-1.416-.33m-26.023.489c-.427.312-.67.673-.541.803.13.129.652-.126 1.161-.567 1.052-.913.561-1.099-.62-.236m29.423 1.375c0 .201.495.688 1.1 1.082.605.393 2.225 1.792 3.6 3.109s2.5 2.216 2.5 1.999c0-.467-4.052-4.341-5.904-5.644-.713-.502-1.296-.747-1.296-.546m-144 3.658c-.449.88-.726 1.6-.616 1.6.11 0 .567-.72 1.016-1.6.449-.88.726-1.6.616-1.6-.11 0-.567.72-1.016 1.6m107.258.576c-2.846 3.01-2.591 3.326.342.424 1.32-1.306 2.4-2.426 2.4-2.487 0-.527-1.014.236-2.742 2.063M376.2 105.2c.557 1.1 1.103 2 1.213 2 .11 0-.256-.9-.813-2-.557-1.1-1.103-2-1.213-2-.11 0 .256.9.813 2m-248.739 4.267c-.407.543-.656 1.071-.554 1.173.101.102.493-.286.871-.862.889-1.357.644-1.597-.317-.311M176.8 110.8c.235.44.608.8.828.8.257 0 .247-.285-.028-.8-.235-.44-.608-.8-.828-.8-.257 0-.247.285.028.8m202.4.208c0 .146.853 1.914 1.896 3.928 1.043 2.015 1.853 3.799 1.8 3.964-.053.165.084.3.304.3.595 0 .537-.191-1.176-3.846-1.371-2.924-2.824-5.161-2.824-4.346m-253.098.692c-.745.942-1.33 2.3-.99 2.3.187 0 .64-.63 1.007-1.4.687-1.439.68-1.78-.017-.9M19.6 112c0 .22.015.515.034.655.019.141-.137.366-.346.5-.368.237-2.088 3.391-2.088 3.829 0 .705.756.001 1.378-1.284 1.45-2.995 1.834-4.1 1.427-4.1a.404.404 0 00-.405.4m-2.958 6.235c-.329.857-.309.965.182.965.233 0 .321-.165.197-.366-.124-.201-.009-.438.257-.527.339-.113.352-.241.044-.431-.241-.149-.547.012-.68.359m260.468 1.322c1.455.937 1.69 1.005 1.69.49 0-.195-.315-.444-.7-.555a29.995 29.995 0 01-1.5-.489c-.44-.159-.211.091.51.554m-24.443.31c-.486.486-.277.912.333.678.33-.127.6-.391.6-.588 0-.419-.551-.473-.933-.09m26.533.516c0 .214.36.582.8.817.44.235.8.285.8.11s-.36-.542-.8-.817c-.443-.277-.8-.326-.8-.11m-30.4 1.961c-2.233 1.465-5.994 5.116-5.998 5.822-.001.201 1.213-.799 2.698-2.222 1.485-1.424 3.139-2.889 3.676-3.257 1.278-.875.925-1.197-.376-.343m-126.533 1.923c-.405.405-.307 3.452.133 4.133.273.423.39-.138.394-1.9.006-2.519-.041-2.719-.527-2.233m165.8 3.233c.359.809 2.901 4.066 3.054 3.913.19-.191-2.663-4.213-2.988-4.213-.11 0-.14.135-.066.3m-46.542 1.998c-.917 1.067-1.213 1.702-.795 1.702.433 0 1.82-1.983 1.566-2.237-.092-.092-.439.148-.771.535M122.4 131c0 .33.18.6.4.6.22 0 .4-.27.4-.6 0-.33-.18-.6-.4-.6-.22 0-.4.27-.4.6m116.975 1.9l-.646 1.3 1.036-1.162c1.145-1.286 1.213-1.438.645-1.438-.214 0-.68.585-1.035 1.3m52.492.472c.375.785.832 1.428 1.017 1.428.405 0-.706-2.243-1.288-2.602-.225-.14-.103.389.271 1.174M179.492 135.9a16.528 16.528 0 01-.489 1.4c-.163.395-.112.7.115.7.318 0 1.282-2 1.282-2.66 0-.475-.742-.018-.908.56m-54.588 2.33c.031.456.29 1.048.576 1.316.672.628.641.12-.07-1.146-.503-.894-.556-.912-.506-.17m53.338.805c-.329.857-.309.965.182.965.233 0 .321-.165.197-.366-.124-.201-.009-.438.257-.527.339-.113.352-.241.044-.431-.241-.149-.547.012-.68.359M174.8 144.6c-.278.335-.321.6-.098.6.22 0 .624-.27.898-.6.278-.335.321-.6.098-.6-.22 0-.624.27-.898.6m-43.8 2.6c.859.88 1.652 1.6 1.762 1.6.11 0-.503-.72-1.362-1.6-.859-.88-1.652-1.6-1.762-1.6-.11 0 .503.72 1.362 1.6m41.575.1l-1.175 1.3 1.3-1.175c1.212-1.095 1.484-1.425 1.175-1.425-.069 0-.654.585-1.3 1.3m-3.175 2.512c-.66.541-1.02.978-.8.972.22-.007.94-.455 1.6-.996.66-.541 1.02-.978.8-.972-.22.007-.94.455-1.6.996m-4.1 2.495c-1.155.582-2.1 1.204-2.1 1.382 0 .396 3.843-1.511 4.195-2.081.326-.527.362-.539-2.095.699m-25.156 1.17c.152.152.677.333 1.166.401.706.099.766.043.29-.271-.679-.447-1.881-.554-1.456-.13m97.104 1.723c-.006.33.235 1.14.538 1.8.707 1.545.717.826.014-1-.297-.77-.545-1.13-.552-.8m-81.728.48c.373.373.587.373.96 0s.267-.48-.48-.48-.853.107-.48.48m137.68 1.27c0 .083-.448 1.163-.995 2.4-.547 1.238-.839 2.25-.648 2.25.378 0 1.492-2.414 1.338-2.9-.052-.165.047-.3.22-.3s.342-.36.375-.8c.033-.44-.019-.8-.115-.8s-.175.068-.175.15m-5.97 9.959l-2.171 2.491 1.901-1.8c1.602-1.517 2.969-3.225 2.554-3.191-.063.005-1.091 1.13-2.284 2.5m-44.83-1.82c0 .503 1.143 1.501 1.412 1.232.106-.106-.168-.519-.61-.919-.441-.399-.802-.54-.802-.313m3.6 3.891c0 .316 4.938 3.691 6.7 4.579.935.472 1.7.711 1.7.532 0-.178-.945-.788-2.1-1.354-1.155-.567-2.957-1.685-4.003-2.484-1.836-1.401-2.297-1.657-2.297-1.273m32.4 4.22c-.77.422-1.22.766-1 .766.22 0 1.03-.344 1.8-.766.77-.422 1.22-.766 1-.766-.22 0-1.03.344-1.8.766m-3.578 1.359c-.807.291-1.191.613-.928.776.248.153.566.092.706-.135s.41-.317.6-.2c.19.117.46.027.6-.2.14-.227.423-.309.628-.183.204.127.372.04.372-.193 0-.516-.218-.501-1.978.135M263.8 176.4c.136.22 1.036.4 2 .4s1.864-.18 2-.4c.154-.249-.604-.4-2-.4s-2.154.151-2 .4m-195.4 6.8c-.429.277-.031.381 1.4.366 1.482-.017 1.793-.111 1.2-.366-1.081-.464-1.881-.464-2.6 0m-6.4 1.709c0 .186-.18.227-.4.091-.22-.136-.4-.06-.4.169s-.45.529-1 .667-1 .414-1 .614.945-.111 2.1-.691c2.546-1.279 2.612-1.333 1.545-1.252-.465.035-.845.216-.845.402m15.965.708c2.41 1.318 2.435 1.327 2.435.826 0-.196-.45-.469-1-.607s-1-.438-1-.667c0-.229-.18-.305-.4-.169-.22.136-.4.095-.4-.091s-.404-.369-.899-.406c-.576-.044-.122.356 1.264 1.114m-20.713 2.201c-1.302 1.096-4.455 5.581-4.447 6.328.002.25.464-.356 1.025-1.346.561-.99 1.948-2.745 3.081-3.9 2.184-2.225 2.359-2.781.341-1.082m25.721 1.425c2.978 3.209 3.304 3.531 2.79 2.757-1.232-1.855-3.534-4.462-4.29-4.858-.48-.251.195.694 1.5 2.101M.093 188.4c0 .77.082 1.085.183.7.1-.385.1-1.015 0-1.4-.101-.385-.183-.07-.183.7m399.6 0c0 .77.082 1.085.183.7.1-.385.1-1.015 0-1.4-.101-.385-.183-.07-.183.7M51.324 201.8c.002 1.32.077 1.812.166 1.093.089-.719.087-1.799-.004-2.4s-.164-.013-.162 1.307M92 200.73c0 .182.45.753 1 1.27 1.146 1.076 1.294.82.354-.614-.632-.964-1.354-1.314-1.354-.656m2.4 2.792c0 .176.63.932 1.4 1.678 1.655 1.604 1.824 1.303.353-.627-.994-1.302-1.753-1.757-1.753-1.051m3.667 3.998c.17.409 11.762 11.68 12.012 11.68.103 0-2.5-2.7-5.784-6-5.547-5.574-6.575-6.512-6.228-5.68m-45.648.596c-.074 1.247 7.877 12.684 8.818 12.684.234 0-.368-.945-1.336-2.1-3.033-3.616-5.349-6.825-6.426-8.9-.571-1.1-1.046-1.858-1.056-1.684M.093 211.6c0 .77.082 1.085.183.7.1-.385.1-1.015 0-1.4-.101-.385-.183-.07-.183.7m399.6 0c0 .77.082 1.085.183.7.1-.385.1-1.015 0-1.4-.101-.385-.183-.07-.183.7m-287.401 10.08c.924.925 1.807 1.555 1.961 1.4.302-.302-2.595-3.036-3.247-3.063-.217-.01.362.739 1.286 1.663m-50.692-.212c0 .511 1.535 1.93 1.801 1.664.108-.107-.253-.618-.803-1.133-.549-.516-.998-.755-.998-.531m2.348 2.81c.483.928 1.19 1.517 1.477 1.23.095-.094-.302-.607-.881-1.14-1.004-.923-1.031-.927-.596-.09M117 225.772c2.395 2.204 3 2.575 3 1.838 0-.214-.518-.657-1.152-.985-.633-.327-1.254-.863-1.379-1.189-.125-.327-.822-.882-1.548-1.233-1.087-.526-.895-.247 1.079 1.569m-50.285 1.664c.98 1.428 2.085 2.431 2.085 1.891 0-.203-.66-.99-1.466-1.749l-1.467-1.378.848 1.236M321 230.19c-.88.542-1.42.985-1.2.985.22 0 1.12-.443 2-.985.88-.542 1.42-.986 1.2-.986-.22 0-1.12.444-2 .986m17-.39c.55.314 1.18.572 1.4.572.22 0-.05-.258-.6-.572-.55-.314-1.18-.572-1.4-.572-.22 0 .05.258.6.572m-214.4.973c.77.695 3.626 2.83 6.347 4.745 2.721 1.915 5.506 3.977 6.189 4.582.683.605 1.395 1.1 1.582 1.1.186 0 .609.27.939.6.33.33.767.6.972.6.924 0 .128-.744-2.737-2.558-2.648-1.677-8.184-5.552-13.292-9.304l-1.4-1.028 1.4 1.263m-52.884 1.068c1.849 2.274 2.884 3.241 2.884 2.694 0-.199-1.022-1.346-2.272-2.549l-2.272-2.186 1.66 2.041M343 233.2c.859.88 1.652 1.6 1.762 1.6.11 0-.503-.72-1.362-1.6-.859-.88-1.652-1.6-1.762-1.6-.11 0 .503.72 1.362 1.6m-29.3 1.646c-1.363.873-1.805 1.46-.6.797.918-.504 2.356-1.616 2.1-1.624-.11-.003-.785.369-1.5.827m-6.3 3.915c-.66.411-1.982 1.231-2.938 1.822-.956.591-1.638 1.174-1.517 1.295.238.238 2.442-.968 3.69-2.018a39.387 39.387 0 011.565-1.24c1.127-.838.632-.751-.8.141m-5.8 3.663c0 .233-.18.312-.4.176-.22-.136-.4-.076-.4.133 0 .209-.45.493-1 .631s-1 .438-1 .667c0 .229.135.351.3.271 2.984-1.439 4.071-2.302 2.9-2.302-.22 0-.4.191-.4.424m-218.778 1.811c.758.789 1.918 1.807 2.578 2.262.744.513.37-.031-.986-1.435-1.203-1.244-2.363-2.262-2.579-2.262-.215 0 .228.646.987 1.435m265.702 1.965c.002 1.32.077 1.812.166 1.093.089-.719.087-1.799-.004-2.4s-.164-.013-.162 1.307M291 248.019c-1.98 1.083-3.461 1.972-3.292 1.975.445.009 7.492-3.564 7.492-3.798 0-.398-.68-.103-4.2 1.823m-143.8-1.427c0 .105.72.559 1.6 1.008 1.983 1.012 2.1.774.177-.36-1.465-.865-1.777-.979-1.777-.648m-59.6 1.961c0 .083.675.653 1.5 1.266l1.5 1.114-1.175-1.267c-1.026-1.106-1.825-1.593-1.825-1.113m64 .407c0 .342 4.049 2.324 4.279 2.095.161-.161-1.247-.934-3.979-2.184-.165-.076-.3-.036-.3.089m132 2.64c-.77.422-1.22.766-1 .766.22 0 1.03-.344 1.8-.766.77-.422 1.22-.766 1-.766-.22 0-1.03.344-1.8.766m-192.382.222c.284.342.891.816 1.349 1.054.743.386.729.319-.137-.622-1.024-1.113-2.094-1.495-1.212-.432M158 252.2c.99.53 1.98.964 2.2.964.22 0-.41-.434-1.4-.964s-1.98-.964-2.2-.964c-.22 0 .41.434 1.4.964m122.2.814c-.66.303-.93.552-.6.554.33.002 1.05-.254 1.6-.568 1.265-.723.589-.713-1 .014m-186.2.875c0 .503 1.143 1.501 1.412 1.232.106-.106-.168-.519-.61-.919-.441-.399-.802-.54-.802-.313m251.457 2.168c-.595.909-1.012 1.721-.928 1.806.085.084.644-.587 1.242-1.492.599-.904 1.017-1.717.928-1.805-.088-.088-.647.583-1.242 1.491M96.4 255.902c0 .22.27.624.6.898.335.278.6.321.6.098 0-.22-.27-.624-.6-.898-.335-.278-.6-.321-.6-.098m2 1.574c0 .22.36.726.8 1.124.44.398.8.544.8.324 0-.22-.36-.726-.8-1.124-.44-.398-.8-.544-.8-.324M343 259.2c-.401.443-.638.895-.528 1.005.11.11.527-.162.928-.605.401-.443.638-.895.528-1.005-.11-.11-.527.162-.928.605m-242.6-.047c0 .381 2.562 2.447 3.035 2.447.158 0-.361-.63-1.154-1.4-1.481-1.438-1.881-1.661-1.881-1.047m159.9.723c-.385.1-.7.369-.7.596 0 .228.285.304.633.171.348-.134.888-.243 1.2-.243.312 0 .567-.18.567-.4 0-.411-.472-.445-1.7-.124m73.197 6.095c-4.785 3.155-6.594 4.536-3.697 2.82 2.843-1.683 9.206-5.992 8.797-5.957-.218.019-2.513 1.431-5.1 3.137m-227.123-2.005c1.208.929 3.226 2.133 3.226 1.924 0-.258-3.507-2.691-3.865-2.681-.184.005.103.346.639.757m91.026.434c-.136.22.134.4.6.4.466 0 .736-.18.6-.4-.136-.22-.406-.4-.6-.4-.194 0-.464.18-.6.4m37.4.8c-.485.314-.428.389.3.394.495.003.9-.174.9-.394 0-.501-.424-.501-1.2 0m-20.662.9c-.102.165 2.465.3 5.705.3s5.79-.101 5.667-.224c-.345-.344-11.161-.417-11.372-.076M112.8 268.162c0 .319 4.037 3.134 4.225 2.947.103-.103-.806-.847-2.019-1.652-1.213-.806-2.206-1.389-2.206-1.295m210.171 4.429c-.424.321-.591.587-.371.59.594.01 1.61-.704 1.359-.955-.119-.12-.564.045-.988.365m-202.371.77c1.848 1.413 2.774 2.025 4 2.646.44.223 1.34.757 2 1.187 2.224 1.449 3.4 2.029 3.4 1.676 0-.193-2.107-1.593-4.681-3.111-4.699-2.769-6.209-3.536-4.719-2.398m-106.981.839c-.01.594.704 1.61.955 1.359.12-.119-.045-.564-.365-.988-.321-.424-.587-.591-.59-.371m300.981 2.989c-2.64 1.518-5.97 3.393-7.4 4.166-1.43.773-2.435 1.415-2.234 1.425.567.031 11.217-5.61 11.368-6.021.074-.2.299-.262.5-.138s.366.036.366-.197.27-.424.6-.424c.33 0 .6-.191.6-.424 0-.233.18-.312.4-.176.22.136.4.046.4-.2s.18-.336.4-.2c.22.136.4.057.4-.176 0-.689-.374-.525-5.4 2.365m-183.4 2.401c0 .214.585.68 1.3 1.035l1.3.646-1.162-1.036c-1.286-1.145-1.438-1.213-1.438-.645m-115.186.71c.008.165.267.75.576 1.3.547.973.56.976.501.1-.034-.495-.214-.9-.4-.9-.186 0-.227-.18-.091-.4.136-.22.057-.4-.176-.4-.233 0-.418.135-.41.3m367.386.1c.136.22.095.4-.091.4s-.366.405-.4.9c-.059.876-.046.873.501-.1.683-1.215.723-1.6.166-1.6-.233 0-.312.18-.176.4m-366.2 2.589c0 .536 1.808 3.811 2.103 3.811.189 0 .255.144.147.319-.238.386.42 1.544.712 1.252.284-.284-2.207-5.571-2.625-5.571-.185 0-.337.085-.337.189m364.08 1.622c-.976 2.008-1.022 2.189-.56 2.189.279 0 2.08-3.3 2.08-3.811 0-.731-.783.105-1.52 1.622M141.2 285c.99.53 1.98.964 2.2.964.22 0-.41-.434-1.4-.964s-1.98-.964-2.2-.964c-.22 0 .41.434 1.4.964m156.4.8c-2.361 1.264-1.852 1.266.86.004 1.177-.548 1.87-.99 1.54-.982-.33.008-1.41.448-2.4.978m-152.4 1c.77.422 1.58.766 1.8.766.22 0-.23-.344-1-.766-.77-.422-1.58-.766-1.8-.766-.22 0 .23.344 1 .766m148.8.6c-.55.314-.82.572-.6.572.22 0 .85-.258 1.4-.572.55-.314.82-.572.6-.572-.22 0-.85.258-1.4.572m82.2 7.4c-.341.66-.531 1.2-.421 1.2.11 0 .48-.54.821-1.2.341-.66.531-1.2.421-1.2-.11 0-.48.54-.821 1.2m-101.573-.441c-.495.194-.613.402-.328.579.245.151.561.089.701-.138.14-.227.41-.317.6-.2.19.117.458.03.596-.193.289-.467-.442-.489-1.569-.048M180.4 298.8c0 .22.27.4.6.4.33 0 .6-.18.6-.4 0-.22-.27-.4-.6-.4-.33 0-.6.18-.6.4m1.6.4c0 .22.27.4.6.4.33 0 .6-.18.6-.4 0-.22-.27-.4-.6-.4-.33 0-.6.18-.6.4m75.2 0c0 .22.27.4.6.4.33 0 .6-.18.6-.4 0-.22-.27-.4-.6-.4-.33 0-.6.18-.6.4m-73.2.4c0 .22.27.4.6.4.33 0 .6-.18.6-.4 0-.22-.27-.4-.6-.4-.33 0-.6.18-.6.4m71.2 0c0 .22.27.4.6.4.33 0 .6-.18.6-.4 0-.22-.27-.4-.6-.4-.33 0-.6.18-.6.4m-69.4.4c.136.22.507.4.824.4.317 0 .576-.18.576-.4 0-.22-.371-.4-.824-.4-.453 0-.712.18-.576.4m67.4 0c0 .22.259.4.576.4.317 0 .688-.18.824-.4.136-.22-.123-.4-.576-.4-.453 0-.824.18-.824.4m-226.799.126c-.002.789 6.774 11.632 7.078 11.328.106-.106-.548-1.284-1.454-2.618-.906-1.334-2.542-3.912-3.635-5.731-1.094-1.818-1.989-3.158-1.989-2.979m345.898 1.836c-.593 1.055-2.172 3.585-3.51 5.623-1.338 2.037-2.355 3.782-2.26 3.877.181.181 3.264-4.5 5.703-8.662.793-1.353 1.375-2.526 1.293-2.608-.081-.081-.633.715-1.226 1.77m-157.588 1.531c.94.085 2.38.084 3.2-.002.819-.086.049-.155-1.711-.154-1.76.002-2.43.072-1.489.156m7.789-.002c.825.087 2.175.087 3 0 .825-.086.15-.157-1.5-.157s-2.325.071-1.5.157M35.037 314.2c.36.55.818 1 1.018 1 .2 0 .069-.45-.292-1-.36-.55-.818-1-1.018-1-.2 0-.069.45.292 1m329.244.013c-.395.543-.551.987-.346.987.205 0 .668-.45 1.028-1 .848-1.293.261-1.282-.682.013m-321.898 9.738c1.583 2.007 2.965 3.649 3.071 3.649.463 0-4.899-6.904-5.552-7.149-.219-.082.898 1.493 2.481 3.5m315.802-1.465c-1.843 2.424-2.295 3.114-2.041 3.114.1 0 1.102-1.17 2.226-2.6 1.124-1.43 1.899-2.6 1.722-2.6-.177 0-1.035.938-1.907 2.086m-312.178 5.758c.003.196 1.098 1.526 2.433 2.956 2.595 2.78 2.083 1.824-.74-1.382-.935-1.062-1.697-1.77-1.693-1.574m306.812 1.061l-.924 1.295 1.131-1.088c.623-.598 1.038-1.181.924-1.295-.114-.114-.623.376-1.131 1.088m-2.59 3.014l-1.142 1.481 1.336-1.287c.735-.708 1.249-1.375 1.142-1.482-.107-.106-.708.473-1.336 1.288M54.019 337.5a625.176 625.176 0 013.132 3.3c.097.11.027-.07-.156-.4-.645-1.162-5.083-6-5.504-6-.234 0 .903 1.395 2.528 3.1m291.76-.4l-2.319 2.7 2.67-2.588c1.468-1.424 2.67-2.639 2.67-2.7 0-.594-1.092.342-3.021 2.588m-283.334 8.768c1.734 1.687 3.245 2.975 3.359 2.862.195-.196-5.919-5.93-6.322-5.93-.105 0 1.229 1.381 2.963 3.068m274.355.11c-1.43 1.293-2.5 2.452-2.378 2.576.123.123 1.378-.941 2.789-2.365 3.188-3.217 3.012-3.307-.411-.211m-269.313 4.445c.708.735 1.375 1.249 1.482 1.142.106-.107-.473-.708-1.288-1.336l-1.481-1.142 1.287 1.336m264.528-.007c-.762.651-1.2 1.184-.975 1.184.226 0 .928-.54 1.56-1.2 1.455-1.519 1.203-1.512-.585.016m-261.527 2.603c.598.626 1.194 1.033 1.323.903.129-.129-.36-.641-1.088-1.138l-1.323-.904 1.088 1.139M329 353.012c-.66.541-1.006.985-.77.986.237.001.853-.448 1.37-.998 1.185-1.262.948-1.257-.6.012M74.4 356.14c0 .103 1.17 1.106 2.6 2.23 1.43 1.124 2.6 1.882 2.6 1.685 0-.197-.945-1.067-2.1-1.932-2.409-1.805-3.1-2.247-3.1-1.983m248.57 1.695c-1.304 1.009-2.437 2.019-2.518 2.244-.082.226 1.043-.526 2.5-1.671 2.366-1.86 2.94-2.408 2.518-2.408-.072 0-1.197.826-2.5 1.835M84.4 363.747c0 .118.81.772 1.8 1.453s1.798 1.095 1.795.919c-.003-.175-.678-.769-1.5-1.319-1.747-1.169-2.095-1.343-2.095-1.053m229.643.697c-1.247 1.012-.93 1.327.357.356.543-.41.901-.832.794-.938-.107-.106-.624.156-1.151.582M88.4 366.561c0 .441 11.158 7.215 11.432 6.94.095-.094-.714-.654-1.796-1.243-1.083-.589-3.609-2.148-5.614-3.465-3.5-2.298-4.022-2.588-4.022-2.232m220.8 1.149c-.99.7-3.503 2.312-5.585 3.582-2.081 1.269-3.591 2.308-3.354 2.308.432 0 10.408-6.123 11.119-6.825.852-.841-.476-.272-2.18.935M104 375.784c0 .11.72.567 1.6 1.016.88.449 1.6.726 1.6.616 0-.11-.72-.567-1.6-1.016-.88-.449-1.6-.726-1.6-.616m7.366 4.04c1.267 1.266 7.834 4.096 7.834 3.376 0-.22-.135-.357-.3-.304-.165.053-1.949-.757-3.964-1.8-3.922-2.03-4.552-2.255-3.57-1.272m173.234 1.444c-1.898.988-1.999 1.067-1.715 1.35.283.283 3.915-1.477 3.915-1.898 0-.479-.436-.37-2.2.548m-3.8 2.041c0 .186-.18.227-.4.091-.22-.136-.4-.057-.4.176 0 .557.385.517 1.6-.166.973-.547.976-.56.1-.501-.495.034-.9.214-.9.4m-93.1 16.567c.385.1 1.015.1 1.4 0 .385-.101.07-.183-.7-.183s-1.085.082-.7.183m23.2 0c.385.1 1.015.1 1.4 0 .385-.101.07-.183-.7-.183s-1.085.082-.7.183" fill="#cbcbcb"/><path d="M189.4.385c-8.375.476-24.351 2.367-25.382 3.004-.169.104-1.007.297-1.863.429-1.99.306-2.531.41-3.755.72-.55.14-1.45.337-2 .439-.55.102-3.43.825-6.4 1.608C78.598 25.393 24.725 79.622 6.333 151.2c-2.043 7.95-2.11 8.243-2.52 10.955-.129.856-.32 1.694-.424 1.863-.337.544-1.755 10.794-2.433 17.582-.797 7.981-.913 27.409-.208 34.8.657 6.884 1.998 17.084 2.488 18.92.223.837.484 2.097.579 2.8.438 3.234 3.942 16.583 6.198 23.607C29.251 321.648 78.019 370.698 137.2 389.653c2.31.74 4.29 1.436 4.4 1.546.11.111.47.223.8.251.33.027 3.355.806 6.722 1.73 3.367.925 6.607 1.764 7.2 1.865.593.101 1.618.353 2.278.559 17.391 5.443 60.208 5.366 83.6-.152 56.568-13.342 100.591-45.163 129.808-93.827 9.744-16.231 20.599-43.503 23.016-57.825.111-.66.366-1.74.567-2.4.201-.66.451-1.74.556-2.4.105-.66.557-3.36 1.005-6 3.879-22.875 3.116-59.55-1.549-74.4a22.03 22.03 0 01-.581-2.4c-.872-5.141-5.832-20.968-9.499-30.314C364.028 71.104 316.985 27.362 260.4 9.545c-1.65-.52-3.06-1.081-3.134-1.247-.074-.167-.273-.217-.443-.112-.17.105-.92.009-1.666-.213-1.421-.422-13.572-3.524-14.957-3.818-.44-.093-1.43-.268-2.2-.389-.77-.12-2.03-.375-2.8-.567-8.299-2.065-32.654-3.561-45.8-2.814M161.904 97.98c24.159 8.246 27.134 41.623 4.864 54.553-4.533 2.632-16.261 5.041-17.671 3.63-.131-.13-1.109-.297-2.175-.37-9.859-.682-20.297-9.899-23.783-21.003-1.065-3.393-1.425-14.362-.481-14.676.251-.084.365-.504.253-.933-.112-.43-.009-.781.23-.781.239 0 .338-.249.222-.553-.117-.304.267-1.699.854-3.1 6.121-14.612 22.566-21.929 37.687-16.767M273.8 117.823c6.834 1.851 13.408 6.649 17.2 12.554 2.602 4.05 4.989 10.891 4.481 12.836-.113.432-.043.887.157 1.01.462.286.477 4.859.016 5.144-.191.118-.264.647-.163 1.175.265 1.387-1.272 6.644-2.872 9.82-11.042 21.927-42.848 21.83-53.581-.162-8.51-17.438 1.459-38.903 19.762-42.553 1.21-.242 2.56-.522 3-.624 1.602-.371 9.662.166 12 .8M76.448 183.962c3.7 1.41 6.47 3.704 9.832 8.144 20.249 26.738 49.297 50.07 76.52 61.463 1.21.507 2.92 1.236 3.8 1.621 7.216 3.158 19.782 6.761 28.876 8.279 2.378.397 4.375.832 4.438.968.063.136.555.162 1.093.06.539-.103 1.298-.054 1.686.109.389.164 1.472.261 2.407.215.935-.045 1.7.067 1.7.249 0 .181 1.215.347 2.7.368l9.971.141c3.999.057 7.467-.017 7.707-.166.24-.148 1.482-.226 2.759-.174 1.278.052 2.539-.039 2.803-.202.264-.163 1.151-.259 1.97-.213.82.045 1.805-.051 2.191-.214.385-.163 1.15-.183 1.7-.046.576.145.999.079.999-.156 0-.225.495-.412 1.1-.416.605-.004 3.781-.539 7.057-1.188 3.276-.65 6.111-1.085 6.3-.969.189.117.343.001.343-.258 0-.273.335-.383.8-.261.44.115.8.025.8-.2s.36-.315.8-.2c.44.115.8.025.8-.2s.351-.317.781-.205c.429.112.834.073.9-.087.065-.16 2.54-1.057 5.498-1.995 15.775-4.997 33.437-13.696 49.598-24.427 13.067-8.676 20.097-9.093 28.658-1.7 2.11 1.822 5.787 7.809 5.173 8.423-.11.111-.016.424.21.696.225.272.375.649.333.837-.043.188.065.671.24 1.072 1.151 2.644-.711 10.353-3.349 13.863-5.808 7.73-37.728 25.97-60.155 34.374-3.031 1.136-5.67 1.967-5.865 1.847-.194-.121-.414-.056-.488.143-.259.699-15.26 5.034-16.188 4.678-.371-.143-.484-.059-.307.228.191.309-.051.39-.766.253-.575-.11-1.096-.065-1.159.099-.369.968-17.745 3.635-29.514 4.53-11.158.849-12.301.834-27.124-.354-7.381-.592-24.473-3.487-24.478-4.146-.001-.135-.672-.28-1.492-.323-.82-.043-1.548-.249-1.618-.458-.069-.208-.478-.287-.907-.175-.43.112-.781.009-.781-.23 0-.239-.24-.342-.534-.229-1.352.519-19.545-5.826-28.666-9.997C113.516 272.76 82.894 248.498 59.226 219c-8.364-10.424-10.156-16.269-7.283-23.764 2.3-6.004 8.856-11.716 13.554-11.81.715-.014 1.301-.186 1.302-.381.002-.671 7.299.022 9.649.917" fill="#040404"/><path d="M192.705.283c.497.096 1.217.092 1.6-.008.382-.1-.025-.179-.905-.174-.88.004-1.193.086-.695.182m13.2 0c.497.096 1.217.092 1.6-.008.382-.1-.025-.179-.905-.174-.88.004-1.193.086-.695.182M246 5.6c.55.176 1.36.32 1.8.32.633 0 .592-.066-.2-.32-.55-.176-1.36-.32-1.8-.32-.633 0-.592.066.2.32m-96.599.707c-1.319.345-2.219.683-2 .751.22.067 1.659-.217 3.199-.632 1.54-.414 2.44-.752 2-.75-.44.002-1.879.286-3.199.631M249 6.196c.768.386 5.99 1.748 6.137 1.6.082-.082-.815-.422-1.994-.755-2.362-.669-4.77-1.16-4.143-.845M143 8.214c-1.005.484-1.037.539-.2.337.55-.132 1.171-.401 1.38-.596.518-.484.234-.422-1.18.259M334.6 52.4c.859.88 1.652 1.6 1.762 1.6.11 0-.503-.72-1.362-1.6-.859-.88-1.652-1.6-1.762-1.6-.11 0 .503.72 1.362 1.6m-270.425.9L63 54.6l1.3-1.175C65.512 52.33 65.784 52 65.475 52c-.069 0-.654.585-1.3 1.3m-11.2 11.2L51.8 65.8l1.3-1.175c1.212-1.095 1.484-1.425 1.175-1.425-.069 0-.654.585-1.3 1.3m294.425.7c.859.88 1.652 1.6 1.762 1.6.11 0-.503-.72-1.362-1.6-.859-.88-1.652-1.6-1.762-1.6-.11 0 .503.72 1.362 1.6m2.2 2.525c0 .069.585.654 1.3 1.3l1.3 1.175-1.175-1.3c-1.095-1.212-1.425-1.484-1.425-1.175M8.067 143.18c-.234.671-.34 1.22-.236 1.22.27 0 1.025-2.078.826-2.276-.09-.091-.356.384-.59 1.056m383.346-.536c.537 2.211 1.365 4.383 1.127 2.956-.129-.77-.481-1.94-.783-2.6-.302-.66-.456-.82-.344-.356m-96.035 4.17c-.012 1.505.123 2.647.3 2.538.407-.251.427-4.84.022-5.09-.165-.102-.31 1.046-.322 2.552m-165.778-.289c0 .069.585.654 1.3 1.3l1.3 1.175-1.175-1.3c-1.095-1.212-1.425-1.484-1.425-1.175m43.106 1.286c-.822.764-1.352 1.389-1.179 1.389.174 0 .927-.63 1.673-1.4 1.741-1.797 1.443-1.79-.494.011M6.071 150.498c-.479 1.91-.855 3.705-.835 3.988.02.282.465-1.106.99-3.086.524-1.98.9-3.774.835-3.987-.066-.213-.511 1.175-.99 3.085M393.05 148.4c.14.77.411 1.76.604 2.2.24.549.27.361.096-.6-.14-.77-.411-1.76-.604-2.2-.24-.549-.27-.361-.096.6M149 156c.136.22.517.4.847.4.33 0 .489-.18.353-.4-.136-.22-.517-.4-.847-.4-.33 0-.489.18-.353.4m4.8 0c-.136.22.123.4.576.4.453 0 .824-.18.824-.4 0-.22-.259-.4-.576-.4-.317 0-.688.18-.824.4m-97.822 32.7l-1.378 1.5 1.5-1.378c1.396-1.284 1.684-1.622 1.378-1.622-.066 0-.741.675-1.5 1.5M82 187.325c0 .069.585.654 1.3 1.3l1.3 1.175-1.175-1.3C82.33 187.288 82 187.016 82 187.325M.093 193.6c0 .77.082 1.085.183.7.1-.385.1-1.015 0-1.4-.101-.385-.183-.07-.183.7m399.6 0c0 .77.082 1.085.183.7.1-.385.1-1.015 0-1.4-.101-.385-.183-.07-.183.7m-347.841 1.874c-.346 1.059-.721 2.736-.834 3.726-.172 1.52-.117 1.426.359-.6.309-1.32.761-2.92 1.004-3.555.243-.636.365-1.233.271-1.326-.094-.094-.454.696-.8 1.755m-.987 8.126c-.003.97 1.026 4.604 1.076 3.8.014-.22-.222-1.39-.524-2.6-.302-1.21-.55-1.75-.552-1.2m348.828 2.8c0 .77.082 1.085.183.7.1-.385.1-1.015 0-1.4-.101-.385-.183-.07-.183.7m-399.6.4c0 .77.082 1.085.183.7.1-.385.1-1.015 0-1.4-.101-.385-.183-.07-.183.7M327.2 227.6c-.795.514.204.514 1.4 0l.8-.344-.8-.022c-.44-.012-1.07.153-1.4.366m4.6 0c1.196.514 2.195.514 1.4 0-.33-.213-.96-.378-1.4-.366l-.8.022.8.344m-263.4 2.25c0 .211.855 1.186 1.9 2.167l1.9 1.783-1.8-1.993c-.99-1.095-1.845-2.07-1.9-2.166-.055-.096-.1-.002-.1.209m247.2 3.386c-.664.543-.731.679-.2.404 1.305-.674 2.028-1.228 1.6-1.225-.22.002-.85.371-1.4.821m33.04 10.63c.368 1.533.56 1.678.56.424 0-.573-.187-1.158-.416-1.3-.273-.169-.322.133-.144.876M84.383 246.1c.981 1.045 1.836 1.9 1.9 1.9.301 0-.017-.359-1.783-2.017l-1.9-1.783 1.783 1.9m-79.147-.586c-.054.771 1.687 7.521 1.825 7.073.065-.213-.311-2.007-.835-3.987-.525-1.98-.97-3.368-.99-3.086m343.231 4.186c-.244 1.155-.543 2.55-.664 3.1-.12.55.033.361.34-.42.599-1.52 1.245-4.78.947-4.78-.099 0-.379.945-.623 2.1M286 250c-.77.422-1.256.774-1.08.783.424.022 2.68-1.151 2.68-1.393 0-.262-.023-.253-1.6.61m-130 .608c0 .211 2.012 1.264 3.489 1.826.602.229.973.294.824.146-.382-.382-4.313-2.179-4.313-1.972m237.029.821c-.148.586-.191 1.143-.097 1.237.095.094.292-.308.439-.895.148-.586.191-1.143.097-1.237-.095-.094-.292.308-.439.895m-1.136 4.064c-.351 1.262-.571 2.362-.489 2.444.082.082.446-.874.809-2.124.364-1.25.584-2.349.49-2.443-.094-.094-.458.861-.81 2.123M8.067 256.82c.234.672.5 1.147.59 1.056.199-.198-.556-2.276-.826-2.276-.104 0 .002.549.236 1.22M205.6 265.2c.776.501 1.2.501 1.2 0 0-.22-.405-.397-.9-.394-.728.005-.785.08-.3.394m4.8.4c.33.213 1.05.388 1.6.388.792 0 .875-.081.4-.388-.33-.213-1.05-.388-1.6-.388-.792 0-.875.081-.4.388m16.6 0c-.296.48.884.48 2 0 .674-.29.6-.348-.476-.372-.702-.015-1.388.152-1.524.372m106 1.435l-1.2 1.031 1.3-.86c.715-.473 1.3-.938 1.3-1.033 0-.3-.169-.195-1.4.862m-193.367 17.517c.408.372 4.367 2.241 4.367 2.061 0-.225-3.82-2.213-4.253-2.213-.154 0-.205.068-.114.152M296 287c-.55.314-.82.572-.6.572.22 0 .85-.258 1.4-.572.55-.314.82-.572.6-.572-.22 0-.85.258-1.4.572m-148.8 1.2c.55.314 1.18.572 1.4.572.22 0-.05-.258-.6-.572-.55-.314-1.18-.572-1.4-.572-.22 0 .05.258.6.572m67.891 15.689c.71.088 1.97.09 2.8.003.83-.087.249-.159-1.291-.161-1.54-.002-2.219.069-1.509.158m7.209 0c.715.089 1.885.089 2.6 0 .715-.088.13-.161-1.3-.161-1.43 0-2.015.073-1.3.161M350.575 331.3l-1.175 1.3 1.3-1.175c.715-.646 1.3-1.231 1.3-1.3 0-.309-.33-.037-1.425 1.175m-3.194 3.6l-1.581 1.7 1.7-1.581c1.581-1.471 1.884-1.819 1.581-1.819-.065 0-.83.765-1.7 1.7M52.4 335c.746.77 1.447 1.4 1.557 1.4.11 0-.411-.63-1.157-1.4-.746-.77-1.447-1.4-1.557-1.4-.11 0 .411.63 1.157 1.4m282.181 12.7L333 349.4l1.7-1.581c1.581-1.471 1.884-1.819 1.581-1.819-.065 0-.83.765-1.7 1.7M67.6 349.725c0 .069.585.654 1.3 1.3l1.3 1.175-1.175-1.3c-1.095-1.212-1.425-1.484-1.425-1.175m263.375 1.175l-1.175 1.3 1.3-1.175c.715-.646 1.3-1.231 1.3-1.3 0-.309-.33-.037-1.425 1.175M99.6 372.979c0 .11.54.48 1.2.821.66.341 1.2.531 1.2.421 0-.11-.54-.48-1.2-.821-.66-.341-1.2-.531-1.2-.421m155.6 19.047c-1.484.505-1.744.672-.8.514 1.37-.229 4.19-1.281 3.4-1.268-.22.003-1.39.343-2.6.754M145 392.4c.44.189 1.07.344 1.4.344.378 0 .304-.127-.2-.344-.44-.189-1.07-.344-1.4-.344-.378 0-.304.127.2.344m2.8.746c.44.193 1.43.464 2.2.604.961.174 1.149.144.6-.096-.44-.193-1.43-.464-2.2-.604-.961-.174-1.149-.144-.6.096m103.2.054c-.504.217-.578.344-.2.344.33 0 .96-.155 1.4-.344.504-.217.578-.344.2-.344-.33 0-.96.155-1.4.344m-58.1 6.676c.385.1 1.015.1 1.4 0 .385-.101.07-.183-.7-.183s-1.085.082-.7.183m12.8 0c.385.1 1.015.1 1.4 0 .385-.101.07-.183-.7-.183s-1.085.082-.7.183" fill="#575757"/><path d="M131.672 11.659c-1.171.45-2.06.886-1.977.97.184.184 3.752-1.142 4.153-1.544.395-.395.24-.354-2.176.574m134.543-.518c.489.444 3.063 1.314 3.272 1.106.086-.086-.701-.449-1.75-.807-1.048-.357-1.733-.492-1.522-.299M341.2 58.505c2.53 2.581 4.668 4.694 4.752 4.694.42.003-4.848-5.742-6.203-6.765a51.753 51.753 0 01-1.949-1.594c-.66-.566.87 1.083 3.4 3.665M61 55.789c-2.528 2.162-3.897 3.553-5.361 5.448-.748.97.557-.124 2.9-2.43 2.344-2.306 4.261-4.241 4.261-4.3 0-.222-.242-.049-1.8 1.282M173 105.2c.859.88 1.652 1.6 1.762 1.6.11 0-.503-.72-1.362-1.6-.859-.88-1.652-1.6-1.762-1.6-.11 0 .503.72 1.362 1.6m112 19.057c2.037 1.807 2.787 2.334 2.002 1.406-.436-.515-1.155-1.122-1.598-1.349-.442-.227-.624-.252-.404-.057m-272.6 5.427c0 .12-.272.87-.605 1.667-.333.797-.516 1.449-.406 1.449.317 0 1.444-2.9 1.216-3.128-.113-.113-.205-.107-.205.012m375.418 1.616c.15.495.437 1.076.638 1.291.201.215.163-.19-.084-.9-.507-1.453-.975-1.783-.554-.391m-214.541 15.507c-1.706 2.056-1.43 2.051.475-.007.814-.88 1.338-1.597 1.164-1.593-.174.004-.911.724-1.639 1.6m-42.477.593c.746.77 1.447 1.4 1.557 1.4.11 0-.411-.63-1.157-1.4-.746-.77-1.447-1.4-1.557-1.4-.11 0 .411.63 1.157 1.4m20.3 8.612a2.581 2.581 0 001.8 0c.735-.295.57-.361-.9-.361s-1.635.066-.9.361m-44.3 59.713c0 .069.585.654 1.3 1.3l1.3 1.175-1.175-1.3c-1.095-1.212-1.425-1.484-1.425-1.175M65.675 226.6c.478.55.931 1 1.006 1 .076 0-.157-.45-.518-1-.36-.55-.813-1-1.006-1-.194 0 .04.45.518 1m9.023 9.6c1.388 1.824 6.272 6.6 6.749 6.6.175 0-.579-.855-1.675-1.9a199.361 199.361 0 01-4.142-4.1c-1.712-1.752-1.902-1.874-.932-.6M85.2 246.546c0 .11.54.584 1.2 1.054.66.47 1.2.764 1.2.654 0-.11-.54-.584-1.2-1.054-.66-.47-1.2-.764-1.2-.654m144.2 19.073c-.558.252-.315.288.8.119.88-.134 1.675-.31 1.767-.391.343-.303-1.799-.076-2.567.272m-12.083.278c1.494.077 3.834.077 5.2-.001 1.365-.078.143-.141-2.717-.141-2.86.001-3.978.065-2.483.142M11.37 267.514c.331.939.802 2.017 1.046 2.396.393.61.413.598.173-.11-.912-2.692-1.134-3.24-1.46-3.596-.199-.218-.09.372.241 1.31m376.609.741c-.221.581-.327 1.13-.236 1.221.09.091.356-.384.59-1.056.52-1.492.206-1.638-.354-.165M162.8 293.831c0 .27 2.078 1.025 2.276.826.091-.09-.384-.356-1.056-.59-.671-.234-1.22-.34-1.22-.236m178.401 47.678c-2.53 2.58-3.961 4.106-3.181 3.391.78-.715 1.568-1.3 1.752-1.3.183 0 1.12-.786 2.081-1.747.961-.961 1.747-1.898 1.747-2.081 0-.184.575-.927 1.278-1.653.704-.725 1.199-1.315 1.1-1.31-.098.004-2.248 2.119-4.777 4.7m-285.581-2.83c.759.923 1.799 2.228 2.31 2.9.512.671 1.135 1.221 1.385 1.221s1.227.757 2.17 1.683c.943.926 1.715 1.601 1.714 1.5 0-.101-2.016-2.163-4.479-4.583-2.464-2.42-3.859-3.645-3.1-2.721m74.78 49.055c0 .103.581.39 1.291.638.71.247 1.115.285.9.084-.456-.427-2.191-.998-2.191-.722m137.7.278c-1.339.539-1.089.812.3.328.66-.23 1.2-.491 1.2-.579 0-.237-.487-.156-1.5.251" fill="#7c7c7c"/><path d="M348.893 246.4c0 .77.082 1.085.183.7.1-.385.1-1.015 0-1.4-.101-.385-.183-.07-.183.7" fill="#747474"/></g></svg>